Coordinates
version=1
nRows=11
nColumns=40
inDegrees=yes

Units are S.I. units (second, meters, Newtons, ...)
Angles are in degrees.

endheader
time	pelvis_tilt	pelvis_list	pelvis_rotation	pelvis_tx	pelvis_ty	pelvis_tz	hip_flexion_r	hip_adduction_r	hip_rotation_r	knee_angle_r	knee_angle_r_beta	ankle_angle_r	subtalar_angle_r	mtp_angle_r	hip_flexion_l	hip_adduction_l	hip_rotation_l	knee_angle_l	knee_angle_l_beta	ankle_angle_l	subtalar_angle_l	mtp_angle_l	lumbar_extension	lumbar_bending	lumbar_rotation	arm_flex_r	arm_add_r	arm_rot_r	elbow_flex_r	pro_sup_r	wrist_flex_r	wrist_dev_r	arm_flex_l	arm_add_l	arm_rot_l	elbow_flex_l	pro_sup_l	wrist_flex_l	wrist_dev_l
      0.00000000	      6.74431049	     17.12000849	     82.75226497	      0.53905418	      0.99700406	     -1.00415756	    -29.76128255	      5.15581441	      4.60213885	      6.19479801	      0.10811962	     17.08279111	      0.00000000	      0.00000000	      4.06740915	     -9.07030910	     -4.64794633	      0.67211767	      0.01173067	      8.37185453	      0.00000000	      0.00000000	    -35.78745926	      2.69292805	      8.15227847	     15.00732989	    -19.39573091	      4.26748894	    138.66871190	     84.68295285	      0.00000000	      0.00000000	      9.07277285	     -9.97448196	     10.94033040	    139.00004119	     80.49144646	      0.00000000	      0.00000000
      0.01000000	      7.03374468	     16.86619158	     82.48021728	      0.53773709	      0.99518237	     -1.00506797	    -29.80342279	      5.04275251	      4.61540765	      7.19069980	      0.12550139	     17.22762333	      0.00000000	      0.00000000	      4.48833291	     -9.35734512	     -4.15284129	      1.34785323	      0.02352448	      8.30090548	      0.00000000	      0.00000000	    -35.45871369	      2.87931410	      8.34001671	     14.73045345	    -19.18489482	      4.29752659	    138.53717856	     84.67745406	      0.00000000	      0.00000000	      8.95145389	     -9.74078418	     11.02596333	    138.81105780	     80.51786675	      0.00000000	      0.00000000
      0.02000000	      7.20666520	     16.97240208	     82.14465968	      0.53594329	      0.99296028	     -1.00560743	    -29.81163273	      4.76090036	      4.55096659	      9.12598241	      0.15927844	     17.80173397	      0.00000000	      0.00000000	      4.94289582	     -9.47300998	     -4.03328392	      3.25103607	      0.05674128	      8.61008433	      0.00000000	      0.00000000	    -35.51501481	      2.86215969	      8.49911392	     14.61377291	    -18.94675301	      4.22602322	    138.52420623	     84.66164696	      0.00000000	      0.00000000	      9.12818721	     -9.53736074	     11.16114540	    138.65848563	     80.57813384	      0.00000000	      0.00000000
      0.03000000	      7.02779079	     17.17841425	     81.85672973	      0.53427272	      0.99102995	     -1.00672109	    -29.80994895	      4.15771521	      4.44290566	     10.98538402	      0.19173112	     18.39665383	      0.00000000	      0.00000000	      5.37325598	     -9.22791213	     -4.75674370	      5.67136260	      0.09898395	      8.37533676	      0.00000000	      0.00000000	    -35.53209969	      2.51149376	      8.47977566	     14.36530949	    -18.60085896	      4.15049022	    138.48888643	     84.66643404	      0.00000000	      0.00000000	      9.15727405	     -9.40727895	     11.21168398	    138.63999920	     80.65803687	      0.00000000	      0.00000000
      0.04000000	      6.84231347	     17.42503689	     81.54050569	      0.53240053	      0.98906179	     -1.00832204	    -29.81021856	      3.50812903	      4.33006736	     12.96178590	      0.22622584	     18.69934956	      0.00000000	      0.00000000	      5.68036044	     -8.94472735	     -5.65165668	      8.12781695	      0.14185717	      7.88437256	      0.00000000	      0.00000000	    -35.51229398	      2.15698929	      8.44675344	     14.00029342	    -18.28118364	      4.17112614	    138.46650656	     84.64698895	      0.00000000	      0.00000000	      9.13577914	     -9.29916251	     11.24579167	    138.62444134	     80.74151981	      0.00000000	      0.00000000
      0.05000000	      6.50197450	     17.83496087	     81.12207404	      0.53059450	      0.98714871	     -1.01017885	    -29.80025758	      2.70901607	      4.55821929	     15.13502548	      0.26415603	     18.81395366	      0.00000000	      0.00000000	      5.55907491	     -8.43895961	     -6.65129102	     10.06110911	      0.17559948	      7.43518444	      0.00000000	      0.00000000	    -35.57171252	      1.58191922	      8.40466182	     13.64402693	    -17.94523687	      4.17274582	    138.45089412	     84.61453452	      0.00000000	      0.00000000	      9.13322664	     -9.24941355	     11.23069382	    138.69819571	     80.81006992	      0.00000000	      0.00000000
      0.06000000	      5.93964654	     18.49947199	     80.05978052	      0.52942205	      0.98621832	     -1.01222007	    -29.80303296	      1.23355684	      5.10985449	     17.71028617	      0.30910281	     19.23817229	      0.00000000	      0.00000000	      4.58278642	     -7.62158894	     -8.30145690	     11.02751559	      0.19246646	      6.39966921	      0.00000000	      0.00000000	    -35.83849023	      0.42705083	      8.77659543	     13.26694685	    -17.57509864	      4.07637469	    138.37424619	     84.62702333	      0.00000000	      0.00000000	      9.02549045	     -9.10437880	     11.16951324	    138.73056079	     80.99076370	      0.00000000	      0.00000000
      0.07000000	      5.79459951	     18.82852064	     79.86105401	      0.52724968	      0.98524490	     -1.01383911	    -29.80757265	      0.62147407	      5.19059093	     19.80823351	      0.34571889	     18.61171778	      0.00000000	      0.00000000	      4.47990827	     -7.23411081	     -8.48547482	     12.58475624	      0.21964543	      5.62264920	      0.00000000	      0.00000000	    -35.89078770	      0.17839538	      8.61826938	     12.85041999	    -17.12187952	      3.95783133	    138.28475926	     84.61800035	      0.00000000	      0.00000000	      9.07334976	     -9.03639695	     11.12235026	    138.67642064	     81.02143654	      0.00000000	      0.00000000
      0.08000000	      5.18188192	     19.50847479	     79.22597720	      0.52524353	      0.98513014	     -1.01595398	    -29.81319440	     -0.88364538	      4.99095379	     22.36016721	      0.39025854	     17.25652514	      0.00000000	      0.00000000	      3.62941352	     -6.28401064	     -9.57508037	     13.62604777	      0.23781940	      4.39374690	      0.00000000	      0.00000000	    -36.14491645	     -0.77713177	      8.62080877	     12.33321938	    -16.69748782	      3.97099506	    138.19199180	     84.56029402	      0.00000000	      0.00000000	      8.96284179	     -8.92041276	     11.01142128	    138.62425227	     81.10069124	      0.00000000	      0.00000000
      0.09000000	      4.56055916	     20.30505346	     78.66056847	      0.52323285	      0.98535363	     -1.01804602	    -29.80696780	     -2.23540929	      5.34170930	     25.03482672	      0.43694015	     15.88724487	      0.00000000	      0.00000000	      2.77872432	     -5.31067317	    -10.12752027	     15.06287423	      0.26289675	      4.21968231	      0.00000000	      0.00000000	    -36.49346168	     -1.72776996	      8.54258494	     11.86713207	    -16.23566108	      3.89075962	    138.10270324	     84.55185286	      0.00000000	      0.00000000	      8.90637608	     -8.88762965	     10.88290530	    138.54105090	     81.09139916	      0.00000000	      0.00000000
      0.10000000	      4.19492523	     21.12766718	     78.31066072	      0.52126091	      0.98591228	     -1.02028356	    -29.79083128	     -3.06845674	      5.80490411	     27.70878815	      0.48360958	     14.47585434	      0.00000000	      0.00000000	      2.02170575	     -4.61485517	    -10.07035320	     16.94090484	      0.29567457	      4.87405431	      0.00000000	      0.00000000	    -36.88227549	     -2.33031721	      8.32324502	     11.36414364	    -15.71137186	      3.79398168	    137.99974166	     84.56559603	      0.00000000	      0.00000000	      8.81328029	     -8.95082704	     10.71580387	    138.49933877	     81.04640508	      0.00000000	      0.00000000
